<svg width="73" height="97" viewBox="0 0 73 97" fill="none" xmlns="http://www.w3.org/2000/svg">
<path d="M65.7 8.3H49.8V1.5C49.8 0.7 49.1 0 48.3 0H24.6C23.8 0 23.1 0.7 23.1 1.5V8.3H6.3C2.8 8.3 0 11.1 0 14.6V90C0 93.5 2.8 96.3 6.3 96.3H65.8C69.3 96.3 72.1 93.5 72.1 90V14.6C72 11.1 69.2 8.3 65.7 8.3ZM24.6 27.7H48.3C49.1 27.7 49.8 27 49.8 26.2V19.7H60.3V84.4H11.7V19.8H23.1V26.2C23.1 27.1 23.8 27.7 24.6 27.7ZM46.8 3V18.2V24.7H26.1V18.2V9.7V3H46.8ZM69 89.9C69 91.7 67.5 93.2 65.7 93.2H6.3C4.5 93.2 3 91.7 3 89.9V14.6C3 12.8 4.5 11.3 6.3 11.3H23.1V16.8H10.2C9.4 16.8 8.7 17.5 8.7 18.3V86C8.7 86.8 9.4 87.5 10.2 87.5H61.8C62.6 87.5 63.3 86.8 63.3 86V18.3C63.3 17.5 62.6 16.8 61.8 16.8H49.8V11.3H65.7C67.5 11.3 69 12.8 69 14.6V89.9Z" fill="#408BFE"/>
<path d="M15.4 44.6C15.4 45.4 16.1 46.1 16.9 46.1H55.4C56.2 46.1 56.9 45.4 56.9 44.6C56.9 43.8 56.2 43.1 55.4 43.1H16.9C16.1 43.1 15.4 43.8 15.4 44.6Z" fill="#408BFE"/>
<path d="M55.4 53.6H16.9C16.1 53.6 15.4 54.3 15.4 55.1C15.4 55.9 16.1 56.6 16.9 56.6H55.4C56.2 56.6 56.9 55.9 56.9 55.1C56.9 54.3 56.2 53.6 55.4 53.6Z" fill="#408BFE"/>
<path d="M55.4 64.6H16.9C16.1 64.6 15.4 65.3 15.4 66.1C15.4 66.9 16.1 67.6 16.9 67.6H55.4C56.2 67.6 56.9 66.9 56.9 66.1C56.9 65.3 56.2 64.6 55.4 64.6Z" fill="#408BFE"/>
</svg>
