<svg width="73" height="97" viewBox="0 0 73 97" fill="none" xmlns="http://www.w3.org/2000/svg">
<path d="M36.0974 52.7383C16.1915 52.7383 0 71.5339 0 94.6415C0 95.526 0.666707 96.2999 1.42866 96.2999H70.6709C71.4329 96.2999 72.0996 95.526 72.0996 94.6415C72.1948 71.5339 56.0034 52.7383 36.0974 52.7383ZM36.0974 56.0552C40.4786 56.0552 44.7646 57.0502 48.5744 58.9298L36.5736 69.2121L23.7157 58.9298C27.5255 57.0502 31.7162 56.0552 36.0974 56.0552ZM2.95256 92.9831C3.42878 78.9416 10.5721 66.7797 20.6679 60.4777L35.8117 72.529C36.0974 72.7501 36.3831 72.8607 36.5736 72.8607C36.8594 72.8607 37.1451 72.7501 37.4308 72.529L51.5269 60.4777C61.718 66.6692 68.766 78.831 69.2423 92.9831H2.95256Z" fill="#CAC7C7"/>
<path d="M35.5257 48.2053C46.955 48.2053 56.2889 37.3702 56.2889 24.1026C56.2889 10.8351 46.955 0 35.5257 0C24.0965 0 14.7626 10.8351 14.7626 24.1026C14.7626 37.4807 24.0965 48.2053 35.5257 48.2053ZM35.5257 3.42744C43.1452 3.42744 49.6218 8.95557 52.1934 16.6949C51.3362 16.1421 50.2885 15.4788 49.3361 14.8154C45.3358 12.0513 42.5738 10.2823 40.7641 10.5034C37.1449 10.8351 35.0495 12.4936 32.7637 14.152C31.5255 15.0365 30.1921 16.0316 28.5729 16.8055L28.0967 17.0266C24.5727 18.6851 22.3821 19.7907 18.0961 20.3435C19.5248 10.7246 26.7633 3.42744 35.5257 3.42744ZM17.6199 23.6604C22.7631 23.1076 25.3346 21.8914 29.0491 20.0118L29.5254 19.7907C31.4302 18.9062 32.8589 17.8006 34.1923 16.8055C36.2877 15.2576 38.0973 13.9309 40.9546 13.7098C42.0023 13.5992 45.6216 16.1421 47.8122 17.5794C50.0028 19.1273 51.8124 20.3435 53.1458 20.7858C53.3363 21.8914 53.4316 22.997 53.4316 24.1026C53.4316 35.4906 45.4311 44.8884 35.5257 44.8884C25.6204 44.8884 17.6199 35.6011 17.6199 24.1026C17.6199 23.9921 17.6199 23.8815 17.6199 23.6604Z" fill="#CAC7C7"/>
</svg>
